<svg width="22" height="17" viewBox="0 0 22 17" fill="none" xmlns="http://www.w3.org/2000/svg">
<path d="M5.5 3.49921L4.132 3.80321C2.631 4.13721 1.88 4.30321 1.44 4.85221C1 5.39921 1 6.16921 1 7.70821L1 9.28921C1 10.8292 1 11.5992 1.44 12.1462C1.88 12.6952 2.63 12.8612 4.132 13.1962L5.5 13.4992M16.5 3.49921L17.868 3.80321C19.369 4.13721 20.12 4.30321 20.56 4.85221C21 5.40021 21 6.16921 21 7.70821V9.28921C21 10.8282 21 11.5972 20.56 12.1452C20.12 12.6942 19.37 12.8602 17.868 13.1952L16.5 13.4992" stroke="white" stroke-width="1.5"/>
<path d="M9.05799 15.7442C7.30055 15.2731 5.77431 14.1792 4.7636 12.6662C3.75288 11.1533 3.32661 9.32452 3.56421 7.52061C3.80181 5.71671 4.68706 4.06068 6.05506 2.86105C7.42306 1.66143 9.1805 1 11 1C12.8195 1 14.5769 1.66143 15.9449 2.86105C17.3129 4.06068 18.1982 5.71671 18.4358 7.52061C18.6734 9.32452 18.2471 11.1533 17.2364 12.6662C16.2257 14.1792 14.6994 15.2731 12.942 15.7442" stroke="white" stroke-width="1.5" stroke-linecap="round"/>
<path d="M7.923 8.49921H11L12.923 6.49921" stroke="white" stroke-width="1.5" stroke-linecap="round" stroke-linejoin="round"/>
</svg>

